<mxfile host="app.diagrams.net" modified="2023-12-12T19:48:43.531Z" agent="Mozilla/5.0 (Macintosh; Intel Mac OS X 10_15_7) AppleWebKit/605.1.15 (KHTML, like Gecko) Version/17.1.2 Safari/605.1.15" etag="dGcvt40I-y3meJxcMc_5" version="22.1.8" type="github">
  <diagram name="Page-1" id="WyB7y40nAuoNFHYiFYkB">
    <mxGraphModel dx="693" dy="773" grid="1" gridSize="10" guides="1" tooltips="1" connect="1" arrows="1" fold="1" page="1" pageScale="1" pageWidth="827" pageHeight="1169" math="0" shadow="0">
      <root>
        <mxCell id="0" />
        <mxCell id="1" parent="0" />
        <mxCell id="-U5PcE5vqmY3aMxh-l33-10" value="&lt;h1&gt;&lt;font style=&quot;font-size: 14px;&quot; face=&quot;Verdana&quot;&gt;Struct encoderData&lt;/font&gt;&lt;/h1&gt;&lt;p&gt;&lt;font style=&quot;font-size: 12px;&quot; face=&quot;vWl9eP2x1LKHVzwdsh9Y&quot;&gt;{&lt;/font&gt;&lt;/p&gt;&lt;p&gt;&lt;font style=&quot;font-size: 12px;&quot; face=&quot;vWl9eP2x1LKHVzwdsh9Y&quot;&gt;&lt;span style=&quot;white-space: pre;&quot;&gt;float distance[2];&lt;/span&gt;&lt;/font&gt;&lt;/p&gt;&lt;p&gt;&lt;font style=&quot;font-size: 12px;&quot; face=&quot;vWl9eP2x1LKHVzwdsh9Y&quot;&gt;&lt;span style=&quot;white-space: pre;&quot;&gt;float velocity[2];&lt;/span&gt;&lt;/font&gt;&lt;/p&gt;&lt;p&gt;&lt;font style=&quot;font-size: 12px;&quot; face=&quot;vWl9eP2x1LKHVzwdsh9Y&quot;&gt;&lt;span style=&quot;white-space: pre;&quot;&gt;long passedTime[2];&lt;/span&gt;&lt;/font&gt;&lt;/p&gt;&lt;p&gt;&lt;font style=&quot;font-size: 12px;&quot; face=&quot;vWl9eP2x1LKHVzwdsh9Y&quot;&gt;&lt;span style=&quot;white-space: pre;&quot;&gt;float passedDistance[2];&lt;/span&gt;&lt;/font&gt;&lt;/p&gt;&lt;p&gt;&lt;font face=&quot;vWl9eP2x1LKHVzwdsh9Y&quot;&gt;&lt;span style=&quot;white-space: pre;&quot;&gt;delta encoders[2];&lt;/span&gt;&lt;/font&gt;&lt;br&gt;&lt;/p&gt;&lt;p&gt;&lt;font style=&quot;font-size: 12px;&quot; face=&quot;vWl9eP2x1LKHVzwdsh9Y&quot;&gt;}&lt;/font&gt;&lt;/p&gt;" style="text;html=1;strokeColor=#82b366;fillColor=#d5e8d4;spacing=5;spacingTop=-20;whiteSpace=wrap;overflow=hidden;rounded=0;" vertex="1" parent="1">
          <mxGeometry x="90" y="230" width="190" height="230" as="geometry" />
        </mxCell>
        <mxCell id="-U5PcE5vqmY3aMxh-l33-11" value="&lt;h1&gt;&lt;font face=&quot;Verdana&quot;&gt;&lt;span style=&quot;font-size: 14px;&quot;&gt;encoderData: Functions&lt;/span&gt;&lt;/font&gt;&lt;/h1&gt;&lt;p&gt;&lt;font style=&quot;font-size: 12px;&quot; face=&quot;vWl9eP2x1LKHVzwdsh9Y&quot;&gt;{&lt;/font&gt;&lt;/p&gt;&lt;p&gt;&lt;font face=&quot;vWl9eP2x1LKHVzwdsh9Y&quot;&gt;&lt;span style=&quot;white-space: pre;&quot;&gt;void getDistance()&lt;/span&gt;&lt;/font&gt;&lt;/p&gt;&lt;p&gt;&lt;font face=&quot;vWl9eP2x1LKHVzwdsh9Y&quot;&gt;&lt;span style=&quot;white-space: pre;&quot;&gt;void getVelocity()&lt;/span&gt;&lt;/font&gt;&lt;/p&gt;&lt;p&gt;&lt;font style=&quot;font-size: 12px;&quot; face=&quot;vWl9eP2x1LKHVzwdsh9Y&quot;&gt;}&lt;/font&gt;&lt;/p&gt;" style="text;html=1;strokeColor=#82b366;fillColor=#d5e8d4;spacing=5;spacingTop=-20;whiteSpace=wrap;overflow=hidden;rounded=0;" vertex="1" parent="1">
          <mxGeometry x="280" y="230" width="200" height="230" as="geometry" />
        </mxCell>
      </root>
    </mxGraphModel>
  </diagram>
</mxfile>
